/* XPM */
static char *GrandOrgue_xpm[] = {
/* columns rows colors chars-per-pixel */
"32 32 4 1",
"  c black",
". c #808080",
"X c #C0C0C0",
"o c gray100",
/* pixels */
"                                ",
"        .    .    .    .        ",
"   ooooo.    .Xooo.    .XoooX   ",
"   ooooo.    .Xooo.    .XoooX   ",
"   ooooo.    .Xooo.    .XoooX   ",
"   ooooo.    .Xooo.    .XoooX   ",
"   ooooo.    .Xooo.    .XoooX   ",
"   ooooo.    .Xooo.    .XoooX   ",
"   ooooo.    .Xooo.    .XoooX   ",
"   ooooo.    .Xooo.    .XoooX   ",
"   ooooo.    .Xooo.    .XoooX   ",
"   ooooo.    .Xooo.    .XoooX   ",
"   ooooo.    .Xooo.    .XoooX   ",
"   ooooo.    .Xooo.    .XoooX   ",
"   ooooo.    .Xooo.    .XoooX   ",
"   ooooo .... Xooo .... XoooX   ",
"   ooooo.XXXX.Xooo.XXXX.XoooX   ",
"   ooooo      Xooo      XoooX   ",
"   ooooooX  XXXooooX  XXXoooX   ",
"   ooooooX  oooooooX  ooooooX   ",
"   ooooooX  oooooooX  ooooooX   ",
"   ooooooX  oooooooX  ooooooX   ",
"   ooooooX  oooooooX  ooooooX   ",
"   ooooooX  oooooooX  ooooooX   ",
"   ooooooX  oooooooX  ooooooX   ",
"   ooooooX  oooooooX  ooooooX   ",
"   ooooooX  oooooooX  ooooooX   ",
"   ooooooX  oooooooX  ooooooX   ",
"   ooooooX  oooooooX  ooooooX   ",
"   XXXXXXX  XXXXXXXX  XXXXXXX   ",
"                                ",
"                                "
};
