/* XPM */
static char *GrandOrgue__[] = {
/* columns rows colors chars-per-pixel */
"16 16 2 1",
"  c black",
". c gray100",
/* pixels */
"                ",
" ...   ..   ... ",
" ...   ..   ... ",
" ...   ..   ... ",
" ...   ..   ... ",
" ...   ..   ... ",
" ...   ..   ... ",
" ...   ..   ... ",
" ...   ..   ... ",
" .... .... .... ",
" .... .... .... ",
" .... .... .... ",
" .... .... .... ",
" .... .... .... ",
" .... .... .... ",
"                "
};
